<?xml version="1.0" encoding="UTF-8"?>
<svg version="1.1" viewBox="0 0 800 800" width="1280" height="1280" xmlns="http://www.w3.org/2000/svg">
<path transform="translate(458,127)" d="m0 0h10l14 2 10 5 1 1v12l-2 9-6 12-2 5 13 4 12 6 11 8 14 12v2l4 2 5 5 8 6 14 8 13 5 14 4 14 2 16 1 5 5-1 5-4 6-7 8-10 7-5 2 1 4 8 12 7 17 4 11 3 19 1 12v28l-3 23-6 23-8 20-10 19-10 15-7 9-12 14-9 8-4 4h-2v2l-11 8-10 7-18 10-7 4-20 8-20 6-16 3-8 2-13 1h-32l-23-2-13-3-16-4-17-6-17-7-13-7-10-6-9-6-12-9-7-5v-2l-4-2-7-6v-2h-2l-7-8-11-12-4-6-9-13-8-14-7-14-5-12-4-10-6-25-2-13-1-28 2-24 3-14 5-19 4-10 8-18 9-15 9-13 13-15 10-9 14-10 13-7 5-2-1-3-8-7-7-10-5-11v-6l4-4 7 1 9 6 10 4 6 1h15l22-3 10-2 15-1h31l17 2 19 6 13 7h3l2-8v-20l5-5zm10 15 4 2 1-2zm-13 11 1 2z" fill="#C1153A"/>
<path transform="translate(284,195)" d="m0 0h6l16 8 15 4 13 2 15 1 5 1-3 9-3 11v11l3 9 8 6 5-1 9-8 10-6 16-6 17-3h28l10 3 14 9 14 12 8 8 11 14 9 12 2 2 5-1 3-4 2-9 1-20 3 1 7 11 3 9v15l-4 17-7 20-9 19-12 19-9 11-9 10-13 13-17 13-18 11-21 10-16 6-24 6-21 3-12 1h-18l-23-2-24-5-20-6-20-8-21-11-4-4-7-18-4-14-4-24v-37l4-24 6-19 7-17 8-15 8-12 8-10 15-15 16-11z" fill="#F11B28"/>
<path transform="translate(458,127)" d="m0 0h10l14 2 10 5 1 1v12l-2 9-6 12-2 5 13 4 12 6 11 8 14 12v2l4 2 5 5 8 6 14 8 13 5 14 4 14 2 16 1 5 5-1 5-4 6-7 8-10 7-5 2 1 4 8 12 7 17 4 11 3 19 1 12v28l-3 23-6 23-8 20-10 19-10 15-7 9-12 14-9 8-4 4h-2v2l-11 8-10 7-18 10-7 4-20 8-20 6-16 3-8 2-13 1h-32l-23-2-13-3-16-4-17-6-17-7-13-7-10-6-9-6-12-9-7-5v-2l-4-2-7-6v-2h-2l-7-8-11-12-4-6-9-13-8-14-7-14-5-12-4-10-6-25-2-13-1-28 2-24 3-14 5-19 4-10 8-18 9-15 9-13 13-15 10-9 14-10 13-7 5-2-1-3-8-7-7-10-5-11v-6l4-4 7 1 9 6 10 4 6 1h15l22-3 10-2 15-1h31l17 2 19 6 13 7h3l2-8v-20l5-5zm10 15 4 2 1-2zm-13 11 1 2zm-163 37-18 8-14 9-13 11-9 9-12 16-10 18-8 18-6 19-4 20-1 12v27l2 16 3 16 6 19 5 12 10 20 12 18 8 10 9 10 5 6 8 7 15 13 20 13 21 11 24 9 18 5 24 4 15 1h18l16-1 17-3 21-5 22-8 20-10 12-8 11-8 13-11 12-12 11-14 10-15 9-17 6-15 6-21 3-21 1-9v-20l-2-19-4-17-6-16-10-16-6-7-17-2-15-5-18-10-8-6h-2l-2 27-2 10-1 1h-6l-12-16-8-11-12-13-12-12-13-9-10-5-9-1h-14l-16 2-17 5-13 7-12 11-3 4h-6l-3-4-1-6v-9l2-9 5-12 6-8v-3l-30-1-18-3-17-5z" fill="#370175"/>
<path transform="translate(453,141)" d="m0 0h22l5 2-2 12-6 12-8 11 1 5 1 1 17 2 13 5 12 7 11 9 14 14 11 8 14 8 15 6 20 5 13 2-2 4-10 6-6 2h-18l-15-5-15-8-16-12-12-11-11-10-7-4 6 11 7 14 3 14v16l-5-5-9-11-9-10-10-10-13-10-15-8-16-2h-12l-18 2-20 6-14 8-6 5h-2l2-9 7-12 11-11 10-6 19-7h3v-3l-19 1-22 3h-39l-17-3-18-6-10-6-10-9 2-1 13 3h17l33-5 11-1h33l18 3 14 5 11 6 4 3h7l7-8 4-10 1-5zm15 1 4 2 1-2zm-13 11 1 2z" fill="#51E256"/>
<path transform="translate(299,220)" d="m0 0h17l9 3 4 4 1 9-4 10-10 14-11 12-7 8-16 17-11 13-15 22-6 8h-2v2l-8 4-8-2-5-6-1-3v-10l3-15 7-21 8-17 11-18 11-13 9-9 11-7 9-4z" fill="#F56B71"/>
<path transform="translate(596,301)" d="m0 0 3 3 4 11 4 21 1 16v13l-1 17-3 16-5 19-6 15-8 16-10 16-8 10-9 10-14 14-16 12-15 9-15 8-21 8-21 6-21 3-8 1h-31l-18-2-20-4-30-10-21-10-16-10 3-1 15 7 16 6 27 7 20 3 15 1h17l22-2 26-5 24-8 25-12 16-10 13-10 12-11 12-12 12-16 9-15 8-16 6-15 6-22 3-20 1-23-2-23z" fill="#F11B28"/>
<path transform="translate(417,200)" d="m0 0h17l16 3 14 5 14 9 10 9 9 11 10 19 1 3 1-8h1v16l-5-5-9-11-9-10-10-10-13-10-15-8-16-2h-12l-18 2-20 6-14 7 2-4 10-9 12-7 12-4z" fill="#48AD5A"/>
<path transform="translate(490,211)" d="m0 0h11l10 4 11 7 18 13 18 10 16 6 11 2h12l6-1-1-2h4l-2 4-10 6-6 2h-18l-15-5-15-8-16-12-12-11-11-10-7-4-1 2z" fill="#48AD5A"/>
<path transform="translate(284,169)" d="m0 0 11 3 25 5 8 1 68 1 17 3 2 2-2 2v-2l-19 1-22 3h-39l-17-3-18-6-10-6z" fill="#48AD5A"/>
<path transform="translate(278,164)" d="m0 0 7 6 13 8 18 6 17 3h39l22-3h19v3l-22 8-10 6-10 10-8 14-2 7 11-8 14-7 17-5 18-2h12l16 2 15 8 10 8 10 9 11 11 11 14 4 6-4-2-9-11-9-10-6-7-8-7-12-9-16-8-23-1-16 1-16 4-14 6-15 10-3-2 1-6 4-9 8-11 11-10 15-7 6-2h-9l-15 2-13 1h-29l-13-1-17-4-14-6-14-10z" fill="#1D0D78"/>
<path transform="translate(480,147)" d="m0 0h1l-1 7-4 9-6 10-4 5 1 4 11 1 16 5 13 7 16 13 14 14 17 11 19 8 9 3 25 5 1 3-5 5-9 5-9 2h-12l-9-2-13-5-11-6-14-10-14-12-9-9-3-1 8 16 3 9 1 21-2 2-1-16-3-14-8-16-4-6v-3l4 1 11 9 11 11 17 13 16 9 13 5 4 1h18l12-5 5-4 1-2-13-1-20-5-15-6-11-6-11-8-10-9-10-10-14-10-13-6-12-3-11-1-3-4 1-5 8-11 5-10z" fill="#1D0D78"/>
<path transform="translate(188,383)" d="m0 0h2l6 22 10 25 10 19 13 19 11 13 12 13 10 9 13 10 15 10 20 11 5 3v2l-5-2-12-6-10-6-9-6-12-9-7-5v-2l-4-2-7-6v-2h-2l-7-8-11-12-4-6-9-13-8-14-7-14-5-12-4-10-4-17z" fill="#302D7E"/>
<path transform="translate(492,177)" d="m0 0 6 1 10 5 11 8 14 12v2l4 2 5 5 8 6 14 8 13 5 14 4 14 2 16 1 5 5-1 5-4 6-7 8-5 3 2-4 8-9 3-5-1-5-27-3-24-7-16-8-12-8-9-8-5-6-11-9-14-9-11-5z" fill="#3C3985"/>
<path transform="translate(603,441)" d="m0 0 1 3-9 17-14 20-9 10-7 8-7 6-4 4h-2v2l-11 8-10 7-6 3 2-4 12-8 14-11 13-12 10-11 13-18 9-16z" fill="#2A2F76"/>
<path transform="translate(261,141)" d="m0 0 7 1 9 6 10 4 6 1h15l12-1-1 3-11 2h-14l-14-4-11-6-3-2-5 1 1 9 3 6-1 3-3-4-4-9v-6z" fill="#2D3B73"/>
<path transform="translate(458,127)" d="m0 0h10l14 2 10 5 1 1v12l-1 5-2-3 1-7-2-6-7-3-3-1-11-1h-9l-11 1-4 2-2 17h-1l-1-7v-10l5-5z" fill="#2E3677"/>
<path transform="translate(189,296)" d="m0 0h2l-1 9-2 11-1 13v30l1 13 1 9-2 1-3-16-1-28 2-24 3-14z" fill="#383782"/>
<path transform="translate(355,147)" d="m0 0h31l17 2 19 6 16 8-4 2-16-8-9-3-9-2-16-2-20-1-9-1z" fill="#444787"/>
<path transform="translate(260,191)" d="m0 0 2 1-5 5h-3l-1 3h-3l-1 3-4 2-3 4-5 3-6 8-3 2-2 4h-2v3l-2 1-1 3h-2l-1 4-7 12h-2v4h-2l-1 5-3 1 2-6 9-15 9-13 13-15 10-9z" fill="#353380"/>
<path transform="translate(590,236)" d="m0 0h8l23 2 5 5-1 5-4 6-7 8-5 3 2-4 8-9 3-5-1-5-27-3-4-2z" fill="#3A447D"/>
<path transform="translate(452,141)" d="m0 0 2 1v12l-3 11-6 9-4 4h-7l-9-6-13-6-4-2 3-1 12 5 10 6 3 2 4-1 7-8 3-7z" fill="#232373"/>
<path transform="translate(622,364)" d="m0 0h1v10l-3 23-6 23-2 5-2-3 4-13 4-19 2-17 1-1z" fill="#354777"/>
<path transform="translate(612,298)" d="m0 0 2 3 5 14 3 19 1 20h-2l-3-26-4-18-3-10z" fill="#2E3777"/>
<path transform="translate(188,383)" d="m0 0h2l6 22 10 25 2 6-2 1-5-11-5-12-4-10-4-17z" fill="#393B81"/>
<path transform="translate(389,557)" d="m0 0h48l5 1v1l-13 1h-32l-16-1v-1z" fill="#2A2E76"/>
<path transform="translate(571,489)" d="m0 0 1 2-7 8-7 6-4 4h-2v2l-11 8-10 7-6 3 2-4 12-8 14-11 13-12z" fill="#4A4390"/>
<path transform="translate(261,141)" d="m0 0 7 1 9 6 2 1v2l-5-1-8-5-5 1 1 9 3 6-1 3-3-4-4-9v-6z" fill="#414584"/>
<path transform="translate(490,543)" d="m0 0m-2 1 3 1-3 2-18 6-20 4-2 1h-6l2-3 18-3z" fill="#383980"/>
<path transform="translate(207,436)" d="m0 0h2l9 16 11 16 6 7v2l-4-2-12-16-6-10-6-11z" fill="#2B3076"/>
<path transform="translate(355,147)" d="m0 0h31l11 1 3 3h-10l-6-1-20-1-9-1z" fill="#314573"/>
<path transform="translate(453,141)" d="m0 0h22l5 2-1 7h-1v-7l-5 1v-2l-5 1h-12v8l1 4-3 5-2 3 1-9zm2 12 1 2z" fill="#FEFEFE"/>
<path transform="translate(264,163)" d="m0 0 3 1 8 11 5 4-1 5-5 3h-4v2l-7 2v2l-2-1 4-4 8-4 5-2-1-3-8-7-5-7z" fill="#272577"/>
<path transform="translate(260,191)" d="m0 0 2 1-5 5h-3l-1 3h-3l-1 3-4 2-3 4-5 3-5 4 2-4 12-11z" fill="#4E4B90"/>
<path transform="translate(450,128)" d="m0 0h7v1l-7 2-6 3-2 17h-1l-1-7v-10l5-5z" fill="#3F537C"/>
<path transform="translate(322,540)" d="m0 0 28 9 1 3-12-3-16-6z" fill="#3A3E81"/>
<path transform="translate(597,271)" d="m0 0 4 5 7 11 4 9v2l-3-1-9-17-4-7z" fill="#35397D"/>
<path transform="translate(478,129)" d="m0 0 6 1 8 4 1 1v12l-1 5-2-3 1-7-2-6-7-3-4-2z" fill="#4A4F8A"/>
<path transform="translate(289,523)" d="m0 0 12 6 13 7 1 3-5-2-12-6-9-5z" fill="#363382"/>
<path transform="translate(566,228)" d="m0 0 5 1 20 6-1 2-7-1-16-5z" fill="#3D4082"/>
<path transform="translate(549,509)" d="m0 0m-1 1 1 3-11 8-9 6-4 2 2-4 12-8z" fill="#32327D"/>
<path transform="translate(587,469)" d="m0 0 1 2-8 11-7 8-2-2 8-9 7-9z" fill="#34387D"/>
<path transform="translate(612,298)" d="m0 0 2 3 5 14v5h-2l-6-18z" fill="#414486"/>
<path transform="translate(269,509)" d="m0 0 9 6 11 8-1 2-9-6-10-7z" fill="#2C2B79"/>
<path transform="translate(513,533)" d="m0 0m-2 1h2v2l-7 4-10 4-4 1 1-3z" fill="#32357C"/>
<path transform="translate(548,218)" d="m0 0 5 2 14 7-1 2-5-1-12-7z" fill="#373A7F"/>
<path transform="translate(616,403)" d="m0 0h1l-1 9-4 13-2-3 5-18z" fill="#32337D"/>
<path transform="translate(340,148)" d="m0 0h10v1l-16 2-1 2h-10l-1-2z" fill="#5F798D"/>
<path transform="translate(189,296)" d="m0 0h2l-1 9-1 7-3 1v-6z" fill="#444588"/>
<path transform="translate(202,260)" d="m0 0 2 1-5 14-3 1 1-5z" fill="#3C4181"/>
<path transform="translate(212,243)" d="m0 0 1 2-2 4h-2v4h-2l-1 5-3 1 2-6 5-9z" fill="#363B7E"/>
<path transform="translate(188,383)" d="m0 0h2l3 11v5h-2l-3-12z" fill="#2D287D"/>
<path transform="translate(619,390)" d="m0 0h1v7l-2 7-2-1 1-10z" fill="#454987"/>
<path transform="translate(490,543)" d="m0 0m-2 1 3 1-3 2-9 3-3-1 9-4z" fill="#292978"/>
<path transform="translate(303,531)" d="m0 0 11 5 1 3-5-2-9-4z" fill="#424784"/>
<path transform="translate(603,441)" d="m0 0 1 3-5 10-2-1 2-6z" fill="#3D3787"/>
<path transform="translate(590,236)" d="m0 0h8l6 2v1h-10l-4-2z" fill="#2A2A78"/>
<path transform="translate(619,253)" d="m0 0 1 2-6 7-5 3 2-4z" fill="#3B3D82"/>
<path transform="translate(220,231)" d="m0 0 1 2h-2l-1 4-4 6h-2l2-5 4-6z" fill="#242972"/>
<path transform="translate(279,150)" d="m0 0 14 3-3 2-7-1-4-2z" fill="#343A7C"/>
<path transform="translate(260,191)" d="m0 0 2 1-5 5h-3l-1 3-2-1 4-5z" fill="#413C89"/>
<path transform="translate(481,170)" d="m0 0 2 3 8 2-2 2-7-1-2-4z" fill="#3F4781"/>
</svg>
